<svg width="20" height="20" viewBox="0 0 20 20" fill="none" xmlns="http://www.w3.org/2000/svg">
<path d="M10.1467 3H9.85334C9.48515 3 9.17088 3.13017 8.91053 3.39052C8.65018 3.65087 8.52001 3.96514 8.52001 4.33333V4.45333C8.51976 4.69127 8.4601 4.91323 8.34103 5.11923C8.22196 5.32522 8.0594 5.4877 7.85334 5.60667L7.56667 5.77333C7.36041 5.89242 7.13818 5.95197 6.90001 5.95197C6.66183 5.95197 6.43961 5.89242 6.23334 5.77333L6.13334 5.72C5.81481 5.53626 5.47792 5.49188 5.12267 5.58687C4.76743 5.68186 4.49765 5.88846 4.31334 6.20667L4.16667 6.46C3.98293 6.77853 3.93855 7.11542 4.03355 7.47067C4.12854 7.82591 4.33514 8.09569 4.65334 8.28L4.75334 8.34667C4.95837 8.46504 5.12038 8.62655 5.23937 8.83122C5.35837 9.03589 5.41858 9.25659 5.42001 9.49333V9.83333C5.42096 10.0725 5.36185 10.2957 5.2427 10.503C5.12355 10.7103 4.96043 10.8738 4.75334 10.9933L4.65334 11.0533C4.33514 11.2376 4.12854 11.5074 4.03354 11.8627C3.93855 12.2179 3.98293 12.5548 4.16667 12.8733L4.31334 13.1267C4.49765 13.4449 4.76743 13.6515 5.12267 13.7465C5.47792 13.8415 5.81481 13.7971 6.13334 13.6133L6.23334 13.56C6.43961 13.4409 6.66183 13.3814 6.90001 13.3814C7.13818 13.3814 7.36041 13.4409 7.56667 13.56L7.85334 13.7267C8.0594 13.8456 8.22196 14.0081 8.34103 14.2141C8.4601 14.4201 8.51976 14.6421 8.52001 14.88V15C8.52001 15.3682 8.65018 15.6825 8.91053 15.9428C9.17088 16.2032 9.48515 16.3333 9.85334 16.3333H10.1467C10.5149 16.3333 10.8291 16.2032 11.0895 15.9428C11.3498 15.6825 11.48 15.3682 11.48 15V14.88C11.4803 14.6421 11.5399 14.4201 11.659 14.2141C11.7781 14.0081 11.9406 13.8456 12.1467 13.7267L12.4333 13.56C12.6396 13.4409 12.8618 13.3814 13.1 13.3814C13.3382 13.3814 13.5604 13.4409 13.7667 13.56L13.8667 13.6133C14.1852 13.7971 14.5221 13.8415 14.8773 13.7465C15.2326 13.6515 15.5024 13.4449 15.6867 13.1267L15.8333 12.8667C16.0171 12.5481 16.0615 12.2112 15.9665 11.856C15.8715 11.5008 15.6649 11.231 15.3467 11.0467L15.2467 10.9933C15.0396 10.8738 14.8765 10.7103 14.7573 10.503C14.6382 10.2957 14.5791 10.0725 14.58 9.83333V9.5C14.5791 9.26088 14.6382 9.03765 14.7573 8.83033C14.8765 8.62301 15.0396 8.45956 15.2467 8.34L15.3467 8.28C15.6649 8.09569 15.8715 7.82591 15.9665 7.47067C16.0615 7.11542 16.0171 6.77853 15.8333 6.46L15.6867 6.20667C15.5024 5.88846 15.2326 5.68187 14.8773 5.58687C14.5221 5.49188 14.1852 5.53626 13.8667 5.72L13.7667 5.77333C13.5604 5.89242 13.3382 5.95197 13.1 5.95197C12.8618 5.95197 12.6396 5.89242 12.4333 5.77333L12.1467 5.60667C11.9406 5.4877 11.7781 5.32522 11.659 5.11923C11.5399 4.91323 11.4803 4.69127 11.48 4.45333V4.33333C11.48 3.96514 11.3498 3.65087 11.0895 3.39052C10.8291 3.13017 10.5149 3 10.1467 3Z" stroke="white" stroke-width="1.33333" stroke-linejoin="round"/>
<ellipse cx="10" cy="9.66667" rx="2" ry="2.16667" stroke="white" stroke-width="1.33333" stroke-linejoin="round"/>
</svg>
