<svg width="24" height="22" viewBox="0 0 24 22" fill="none" xmlns="http://www.w3.org/2000/svg">
<mask id="mask0_215_698" style="mask-type:luminance" maskUnits="userSpaceOnUse" x="0" y="0" width="24" height="22">
<path d="M24 0.373262H0V21.6267H24V0.373262Z" fill="white"/>
</mask>
<g mask="url(#mask0_215_698)">
<path d="M8.83952 2.24836C8.43378 2.42225 7.9795 2.96347 7.59333 3.73583C7.21657 4.46978 6.96515 4.83712 6.95574 4.64367C6.95574 4.5473 6.77243 4.52774 6.21164 4.5473L5.45812 4.57629L5.42914 4.94362C5.39074 5.45587 5.52551 5.59063 6.11528 5.59063C6.57898 5.59063 6.5884 5.60005 6.44349 5.76452C6.05731 6.18982 5.95081 6.74047 5.95081 8.34386C5.94139 9.80235 5.95081 9.90885 6.1631 10.2566C6.28844 10.4595 6.52029 10.6819 6.67534 10.7587C6.94559 10.9036 6.95574 10.9326 6.95574 11.6376C6.95574 12.0339 7.00428 12.4491 7.0521 12.5556C7.34191 13.0867 8.4048 13.1736 8.8685 12.7005C9.09094 12.4781 9.12934 12.3527 9.15832 11.7245L9.19672 11L13.1288 11.0196L17.0507 11.0485L17.0992 11.7731C17.1572 12.6041 17.1956 12.6809 17.6013 12.8939C18.036 13.1164 18.6932 13.0294 19.012 12.7005C19.2344 12.4781 19.2728 12.3527 19.3112 11.7057C19.3402 10.9717 19.3496 10.9522 19.7655 10.5559C20.2777 10.0538 20.3161 9.85089 20.2676 8.08303C20.2292 6.68251 20.2096 6.60498 19.7264 5.65801C19.7068 5.61961 19.8517 5.59063 20.0452 5.59063C20.5668 5.59063 20.7697 5.44573 20.7697 5.06897C20.7697 4.59585 20.5958 4.49876 19.7648 4.5473L19.0402 4.57629L18.77 4.00608C18.3838 3.18518 17.9295 2.58599 17.5144 2.33458C17.2695 2.18629 15.8107 2.11215 13.1382 2.11215C10.0466 2.12157 9.06123 2.15055 8.83952 2.24763V2.24836ZM16.7609 2.98304C16.9347 3.08954 17.1862 3.34023 17.3209 3.5431C17.5622 3.91044 18.3548 5.43631 18.3548 5.54281C18.3548 5.6102 7.97008 5.60078 7.89256 5.53339C7.80561 5.44645 8.78156 3.64961 9.11919 3.28227C9.28366 3.10838 9.50537 2.92507 9.61188 2.88595C9.71838 2.8374 11.3022 2.799 13.128 2.799C16.287 2.78959 16.4609 2.799 16.7601 2.98231L16.7609 2.98304ZM8.48233 7.07882C8.83952 7.43602 8.81054 7.95768 8.42437 8.30546C8.00921 8.68222 7.61289 8.6728 7.23613 8.30546C6.60796 7.66787 7.10064 6.66294 7.97008 6.79843C8.13455 6.82741 8.3664 6.95276 8.48233 7.07882ZM19.0026 7.04984C19.6597 7.67802 19.0699 8.74018 18.1715 8.53731C17.6209 8.42139 17.3115 7.73525 17.5825 7.23315C17.8433 6.74989 18.5773 6.65352 19.0026 7.04984ZM14.8771 9.89002V10.5182H11.3029V9.26257H14.8771V9.89074V9.89002Z" fill="white"/>
<path d="M2.25126 14.1887C2.08679 14.285 1.89406 14.4589 1.84552 14.5654C1.77814 14.6814 1.73901 15.5993 1.73901 16.9904V19.2314L2.06723 19.5596L2.39544 19.8879H3.88291C5.17765 19.8879 5.39936 19.8683 5.67033 19.6944C5.95073 19.5299 6.18258 19.0662 6.18258 18.6511C6.18258 18.5641 7.20635 18.5352 10.9841 18.5352H15.795L18.0649 17.8976C19.3111 17.5498 20.6247 17.173 20.9725 17.0767C21.7745 16.8448 22.0933 16.6035 22.2187 16.1203C22.3542 15.6276 22.1607 15.1349 21.7166 14.8647C21.2145 14.5553 21.3594 14.5365 17.6208 15.5986C16.6064 15.8884 15.7276 16.1203 15.6696 16.1203C15.6022 16.1203 15.5537 15.9949 15.5537 15.8399C15.5537 15.4631 15.2255 15.0864 14.8002 14.961C14.6067 14.9125 13.6989 14.8647 12.7911 14.8647C11.4485 14.8647 11.0036 14.8263 10.3762 14.6712C9.48718 14.4394 7.65193 14.401 6.71511 14.6038L6.13548 14.7198L5.78771 14.3524L5.43993 13.9952H4.00028C2.74467 13.9952 2.52223 14.0242 2.25198 14.1887H2.25126ZM5.54499 14.6915C5.67033 14.8748 5.69932 15.2617 5.69932 16.981C5.69932 19.6567 5.80582 19.5024 3.95102 19.5024C2.09621 19.5024 2.18315 19.6567 2.14475 17.1745C2.12519 16.0927 2.13533 15.1168 2.16432 15.0009C2.28966 14.5176 2.42515 14.4792 3.96116 14.4792C5.3327 14.4792 5.41023 14.4886 5.54571 14.6915H5.54499Z" fill="white"/>
</g>
</svg>
